<svg width="171" height="23" viewBox="0 0 171 23" fill="none" xmlns="http://www.w3.org/2000/svg">
<path d="M0.152109 11.44C0.152109 9.36 0.602109 7.51 1.50211 5.89C2.40211 4.25 3.65211 2.98 5.25211 2.08C6.87211 1.16 8.70211 0.699999 10.7421 0.699999C13.2421 0.699999 15.3821 1.36 17.1621 2.68C18.9421 4 20.1321 5.8 20.7321 8.08H15.0921C14.6721 7.2 14.0721 6.53 13.2921 6.07C12.5321 5.61 11.6621 5.38 10.6821 5.38C9.10211 5.38 7.82211 5.93 6.84211 7.03C5.86211 8.13 5.37211 9.6 5.37211 11.44C5.37211 13.28 5.86211 14.75 6.84211 15.85C7.82211 16.95 9.10211 17.5 10.6821 17.5C11.6621 17.5 12.5321 17.27 13.2921 16.81C14.0721 16.35 14.6721 15.68 15.0921 14.8H20.7321C20.1321 17.08 18.9421 18.88 17.1621 20.2C15.3821 21.5 13.2421 22.15 10.7421 22.15C8.70211 22.15 6.87211 21.7 5.25211 20.8C3.65211 19.88 2.40211 18.61 1.50211 16.99C0.602109 15.37 0.152109 13.52 0.152109 11.44ZM36.9837 18.28H29.1237L27.8637 22H22.4937L30.1137 0.939999H36.0537L43.6737 22H38.2437L36.9837 18.28ZM35.6637 14.32L33.0537 6.61L30.4737 14.32H35.6637ZM61.1428 0.939999V5.05H55.5628V22H50.4328V5.05H44.8528V0.939999H61.1428ZM81.9574 0.939999V22H76.8274V13.33H68.8474V22H63.7174V0.939999H68.8474V9.19H76.8274V0.939999H81.9574ZM95.6208 22.21C93.6408 22.21 91.8208 21.75 90.1608 20.83C88.5208 19.91 87.2108 18.63 86.2308 16.99C85.2708 15.33 84.7908 13.47 84.7908 11.41C84.7908 9.35 85.2708 7.5 86.2308 5.86C87.2108 4.22 88.5208 2.94 90.1608 2.02C91.8208 1.1 93.6408 0.64 95.6208 0.64C97.6008 0.64 99.4108 1.1 101.051 2.02C102.711 2.94 104.011 4.22 104.951 5.86C105.911 7.5 106.391 9.35 106.391 11.41C106.391 13.47 105.911 15.33 104.951 16.99C103.991 18.63 102.691 19.91 101.051 20.83C99.4108 21.75 97.6008 22.21 95.6208 22.21ZM95.6208 17.53C97.3008 17.53 98.6408 16.97 99.6408 15.85C100.661 14.73 101.171 13.25 101.171 11.41C101.171 9.55 100.661 8.07 99.6408 6.97C98.6408 5.85 97.3008 5.29 95.6208 5.29C93.9208 5.29 92.5608 5.84 91.5408 6.94C90.5408 8.04 90.0408 9.53 90.0408 11.41C90.0408 13.27 90.5408 14.76 91.5408 15.88C92.5608 16.98 93.9208 17.53 95.6208 17.53ZM114.375 18.04H121.095V22H109.245V0.939999H114.375V18.04ZM128.672 0.939999V22H123.542V0.939999H128.672ZM131.519 11.44C131.519 9.36 131.969 7.51 132.869 5.89C133.769 4.25 135.019 2.98 136.619 2.08C138.239 1.16 140.069 0.699999 142.109 0.699999C144.609 0.699999 146.749 1.36 148.529 2.68C150.309 4 151.499 5.8 152.099 8.08H146.459C146.039 7.2 145.439 6.53 144.659 6.07C143.899 5.61 143.029 5.38 142.049 5.38C140.469 5.38 139.189 5.93 138.209 7.03C137.229 8.13 136.739 9.6 136.739 11.44C136.739 13.28 137.229 14.75 138.209 15.85C139.189 16.95 140.469 17.5 142.049 17.5C143.029 17.5 143.899 17.27 144.659 16.81C145.439 16.35 146.039 15.68 146.459 14.8H152.099C151.499 17.08 150.309 18.88 148.529 20.2C146.749 21.5 144.609 22.15 142.109 22.15C140.069 22.15 138.239 21.7 136.619 20.8C135.019 19.88 133.769 18.61 132.869 16.99C131.969 15.37 131.519 13.52 131.519 11.44ZM162.861 22.21C161.321 22.21 159.941 21.96 158.721 21.46C157.501 20.96 156.521 20.22 155.781 19.24C155.061 18.26 154.681 17.08 154.641 15.7H160.101C160.181 16.48 160.451 17.08 160.911 17.5C161.371 17.9 161.971 18.1 162.711 18.1C163.471 18.1 164.071 17.93 164.511 17.59C164.951 17.23 165.171 16.74 165.171 16.12C165.171 15.6 164.991 15.17 164.631 14.83C164.291 14.49 163.861 14.21 163.341 13.99C162.841 13.77 162.121 13.52 161.181 13.24C159.821 12.82 158.711 12.4 157.851 11.98C156.991 11.56 156.251 10.94 155.631 10.12C155.011 9.3 154.701 8.23 154.701 6.91C154.701 4.95 155.411 3.42 156.831 2.32C158.251 1.2 160.101 0.64 162.381 0.64C164.701 0.64 166.571 1.2 167.991 2.32C169.411 3.42 170.171 4.96 170.271 6.94H164.721C164.681 6.26 164.431 5.73 163.971 5.35C163.511 4.95 162.921 4.75 162.201 4.75C161.581 4.75 161.081 4.92 160.701 5.26C160.321 5.58 160.131 6.05 160.131 6.67C160.131 7.35 160.451 7.88 161.091 8.26C161.731 8.64 162.731 9.05 164.091 9.49C165.451 9.95 166.551 10.39 167.391 10.81C168.251 11.23 168.991 11.84 169.611 12.64C170.231 13.44 170.541 14.47 170.541 15.73C170.541 16.93 170.231 18.02 169.611 19C169.011 19.98 168.131 20.76 166.971 21.34C165.811 21.92 164.441 22.21 162.861 22.21Z" fill="white"/>
</svg>
